<svg width="36" height="36" viewBox="0 0 36 36" fill="none" xmlns="http://www.w3.org/2000/svg">
<rect width="35.6567" height="35.6567" rx="10.9713" fill="#C9D9DA"/>
<path fill-rule="evenodd" clip-rule="evenodd" d="M11.2347 15.4996C11.2091 15.653 11.19 15.7939 11.1756 15.919C11.058 15.9551 10.9313 16.0032 10.8026 16.0676C10.5306 16.2036 10.2363 16.4191 10.0115 16.7562C9.78373 17.0979 9.65714 17.5204 9.65714 18.0183C9.65714 18.5162 9.78373 18.9387 10.0115 19.2804C10.2363 19.6175 10.5306 19.833 10.8026 19.969C10.9313 20.0334 11.058 20.0815 11.1756 20.1176C11.19 20.2428 11.2091 20.3836 11.2347 20.537C11.335 21.1385 11.5369 21.9519 11.948 22.7741C12.3606 23.5993 12.991 24.4469 13.9505 25.0866C14.9147 25.7294 16.167 26.1326 17.7714 26.1326C19.3758 26.1326 20.6281 25.7294 21.5922 25.0866C22.5517 24.4469 23.1822 23.5993 23.5948 22.7741C24.0059 21.9519 24.2078 21.1385 24.3081 20.537C24.3336 20.3836 24.3528 20.2428 24.3672 20.1176C24.4848 20.0815 24.6115 20.0334 24.7402 19.969C25.0121 19.833 25.3065 19.6175 25.5313 19.2804C25.7591 18.9387 25.8856 18.5162 25.8856 18.0183C25.8856 17.5204 25.7591 17.0979 25.5313 16.7562C25.3065 16.4191 25.0121 16.2036 24.7402 16.0676C24.6115 16.0032 24.4848 15.9551 24.3672 15.919C24.3528 15.7939 24.3336 15.653 24.3081 15.4996C24.2078 14.8981 24.0059 14.0847 23.5948 13.2625C23.1822 12.4373 22.5517 11.5897 21.5922 10.95C20.6281 10.3073 19.3758 9.90405 17.7714 9.90405C16.167 9.90405 14.9147 10.3073 13.9505 10.95C12.991 11.5897 12.3606 12.4373 11.948 13.2625C11.5369 14.0847 11.335 14.8981 11.2347 15.4996ZM22.8631 20.2313H12.6797C12.76 20.7417 12.9272 21.4337 13.2676 22.1144C13.5926 22.7646 14.0687 23.3922 14.7689 23.859C15.4645 24.3228 16.4252 24.6572 17.7714 24.6572C19.1176 24.6572 20.0783 24.3228 20.7739 23.859C21.4741 23.3922 21.9502 22.7646 22.2752 22.1144C22.6155 21.4337 22.7828 20.7417 22.8631 20.2313ZM22.8631 15.8053H22.1973C21.7899 15.8053 21.4597 16.1356 21.4597 16.543C21.4597 16.9504 21.7899 17.2806 22.1973 17.2806H23.6727C23.9002 17.2895 24.1713 17.3759 24.3037 17.5745C24.3525 17.6478 24.4103 17.7786 24.4103 18.0183C24.4103 18.258 24.3525 18.3888 24.3037 18.4621C24.1713 18.6607 23.9002 18.7471 23.6727 18.756H11.8701C11.6426 18.7471 11.3716 18.6607 11.2391 18.4621C11.1903 18.3888 11.1325 18.258 11.1325 18.0183C11.1325 17.7786 11.1903 17.6478 11.2391 17.5745C11.3716 17.3759 11.6426 17.2895 11.8701 17.2806H13.3454C13.7528 17.2806 14.0831 16.9504 14.0831 16.543C14.0831 16.1356 13.7528 15.8053 13.3454 15.8053H12.6797C12.76 15.2949 12.9272 14.6029 13.2676 13.9222C13.5926 13.2721 14.0687 12.6444 14.7689 12.1776C15.0011 12.0228 15.2627 11.8824 15.5584 11.7641V13.5924C15.5584 13.9997 15.8887 14.33 16.2961 14.33C16.7035 14.33 17.0337 13.9997 17.0337 13.5924V11.4153C17.2658 11.3918 17.5114 11.3794 17.7714 11.3794C18.0313 11.3794 18.277 11.3918 18.509 11.4153V13.5924C18.509 13.9997 18.8393 14.33 19.2467 14.33C19.6541 14.33 19.9844 13.9997 19.9844 13.5924V11.7641C20.28 11.8824 20.5417 12.0228 20.7739 12.1776C21.4741 12.6444 21.9502 13.2721 22.2752 13.9222C22.6155 14.6029 22.7828 15.2949 22.8631 15.8053Z" fill="#3B3832"/>
</svg>
