<svg width="36" height="36" viewBox="0 0 36 36" fill="none" xmlns="http://www.w3.org/2000/svg">
<rect width="35.9043" height="35.9043" rx="11.0475" fill="#E6DCCD"/>
<path d="M12.6015 14.6719H10.8753M12.6015 21.5765H10.8753M12.6015 18.1242H10.0122M13.4645 11.6645C14.6988 10.8383 16.1832 10.3564 17.78 10.3564C22.07 10.3564 25.5477 13.8342 25.5477 18.1242C25.5477 22.4142 22.07 25.892 17.78 25.892C16.1832 25.892 14.6988 25.4101 13.4645 24.584M19.5061 15.9664C19.0746 15.8594 18.3713 15.8554 17.78 15.8594M17.78 15.8594C17.5822 15.8607 17.7018 15.8523 17.4347 15.8594C16.7379 15.8811 16.0552 16.1707 16.0538 16.9913C16.0523 17.8654 16.9169 18.1241 17.78 18.1241C18.643 18.1241 19.5061 18.3237 19.5061 19.2569C19.5061 19.9583 18.8092 20.2656 17.9406 20.3674C17.8849 20.3674 17.8315 20.3674 17.78 20.3677M17.78 15.8594C17.78 15.8594 17.78 15.1356 17.78 14.6719M17.78 20.3677C17.1929 20.3701 16.8472 20.381 16.0538 20.2818M17.78 20.3677V21.5765" stroke="#504027" stroke-width="1.47957" stroke-linecap="round" stroke-linejoin="round"/>
</svg>
