<svg width="42" height="42" viewBox="0 0 42 42" fill="none" xmlns="http://www.w3.org/2000/svg">
<rect width="41.75" height="41.75" rx="20.875" fill="#E9E1FD"/>
<path d="M32.6739 20.875C32.6739 20.8882 32.6636 20.8992 32.6503 20.9C29.5976 21.0931 26.7197 22.393 24.5563 24.5563C22.393 26.7196 21.0931 29.5975 20.9001 32.6503C20.8992 32.6635 20.8882 32.6739 20.875 32.6739C20.8617 32.6739 20.8508 32.6635 20.8499 32.6503C20.6572 29.5974 19.3574 26.7193 17.194 24.5559C15.0306 22.3925 12.1525 21.0928 9.09965 20.9C9.08641 20.8992 9.07607 20.8882 9.07607 20.875C9.07607 20.8617 9.08641 20.8507 9.09965 20.8499C12.1525 20.6571 15.0306 19.3574 17.194 17.194C19.3574 15.0306 20.6572 12.1525 20.8499 9.09963C20.8508 9.08639 20.8617 9.07605 20.875 9.07605C20.8882 9.07605 20.8992 9.08639 20.9001 9.09962C21.0931 12.1524 22.393 15.0303 24.5563 17.1936C26.7197 19.357 29.5976 20.6568 32.6503 20.8499C32.6636 20.8507 32.6739 20.8617 32.6739 20.875Z" fill="url(#paint0_linear_1_1133)"/>
<defs>
<linearGradient id="paint0_linear_1_1133" x1="9.07607" y1="20.875" x2="32.6739" y2="20.875" gradientUnits="userSpaceOnUse">
<stop stop-color="#864EFF"/>
<stop offset="1" stop-color="#502F99"/>
</linearGradient>
</defs>
</svg>
