<svg width="36" height="36" viewBox="0 0 36 36" fill="none" xmlns="http://www.w3.org/2000/svg">
<rect width="35.9043" height="35.9043" rx="11.0475" fill="#D5E9EF"/>
<path d="M19.1843 14.9548H16.7223V16.5898H15.0873V19.0556H16.7223V20.6906H19.1843V19.0556H20.823V16.5898H19.1843V14.9548Z" fill="#152F46"/>
<path d="M24.9462 12.5982C24.7083 12.6511 24.4629 12.6775 24.2099 12.6775C22.3823 12.6775 20.8983 11.22 20.8983 9.41882H15.004C15.004 11.2162 13.52 12.6775 11.6925 12.6775C11.4395 12.6775 11.194 12.6511 10.9561 12.5982C8.81137 21.653 17.9531 26.4863 17.9531 26.4863C17.9531 26.4863 27.0947 21.653 24.9462 12.5982ZM21.106 21.9476C19.9543 23.2843 18.712 24.2094 17.9568 24.7116C17.1828 24.1981 15.9027 23.2427 14.7435 21.8796C13.1689 20.0256 12.3079 18.0281 12.172 15.9173H13.3237C13.4709 15.9173 13.588 15.8003 13.588 15.653C13.588 15.5057 13.4709 15.3887 13.3237 15.3887H12.1531C12.1494 14.9846 12.172 14.5806 12.2211 14.169C14.1166 13.9651 15.6875 12.6737 16.2727 10.9368H19.6371C20.2262 12.67 21.797 13.9651 23.6888 14.169C24.0173 16.9595 23.1526 19.5725 21.106 21.9476Z" fill="#152F46"/>
<path d="M14.3246 15.5468C14.3171 15.5317 14.3095 15.5166 14.302 15.5015C14.2906 15.4864 14.2793 15.4751 14.268 15.46C14.2566 15.4486 14.2415 15.4373 14.2264 15.426C14.2113 15.4147 14.1962 15.4071 14.1811 15.4033C14.166 15.3958 14.1471 15.392 14.132 15.3882C14.098 15.3807 14.0641 15.3807 14.0301 15.3882C14.015 15.392 13.9961 15.3958 13.981 15.4033C13.9659 15.4109 13.9508 15.4184 13.9357 15.426C13.9206 15.4373 13.9092 15.4486 13.8941 15.46C13.8828 15.4713 13.8715 15.4864 13.8602 15.5015C13.8488 15.5166 13.8413 15.5317 13.8337 15.5468C13.8262 15.5619 13.8224 15.5808 13.8186 15.5959C13.8149 15.6148 13.8148 15.6299 13.8148 15.6488C13.8148 15.7167 13.8413 15.7847 13.8941 15.8338C13.9055 15.8451 13.9206 15.8565 13.9357 15.8678C13.9508 15.8791 13.9659 15.8867 13.981 15.8942C13.9961 15.9018 14.015 15.9055 14.0301 15.9093C14.0452 15.9131 14.0641 15.9131 14.0829 15.9131C14.1018 15.9131 14.1169 15.9131 14.1358 15.9093C14.1509 15.9055 14.1698 15.9018 14.1849 15.8942C14.2 15.8867 14.2151 15.8791 14.2302 15.8678C14.2453 15.8565 14.2566 15.8489 14.2717 15.8338C14.3208 15.7847 14.3473 15.7167 14.3473 15.6488C14.3473 15.6337 14.3473 15.6148 14.3435 15.5959C14.3359 15.5808 14.3284 15.5657 14.3246 15.5468Z" fill="#152F46"/>
</svg>
