<svg width="36" height="36" viewBox="0 0 36 36" fill="none" xmlns="http://www.w3.org/2000/svg">
<rect width="35.9043" height="35.9043" rx="11.0475" fill="#C6D7DE"/>
<path fill-rule="evenodd" clip-rule="evenodd" d="M20.7391 10.9655H15.6762V9.79417C15.6762 9.48225 15.423 9.229 15.1111 9.229C14.7991 9.229 14.5459 9.48225 14.5459 9.79417V10.9655C13.6038 10.9708 12.7014 11.3473 12.0348 12.0138C11.4277 12.621 11.0612 13.4238 10.9967 14.274H9.81516C9.50325 14.274 9.25 14.5273 9.25 14.8392C9.25 15.1511 9.50325 15.4043 9.81516 15.4043H10.9865V20.4673H9.81516C9.50325 20.4673 9.25 20.7205 9.25 21.0324C9.25 21.3443 9.50325 21.5976 9.81516 21.5976H10.9967C11.0612 22.4478 11.4277 23.2506 12.0348 23.8578C12.7014 24.5243 13.6038 24.9008 14.5459 24.9061V26.0774C14.5459 26.3893 14.7991 26.6426 15.1111 26.6426C15.423 26.6426 15.6762 26.3893 15.6762 26.0774V24.9061H20.7391V26.0774C20.7391 26.3893 20.9924 26.6426 21.3043 26.6426C21.6162 26.6426 21.8695 26.3893 21.8695 26.0774V24.8679C22.6257 24.7565 23.3317 24.4048 23.8788 23.8578C24.4859 23.2506 24.8524 22.4478 24.9169 21.5976H26.0984C26.4103 21.5976 26.6636 21.3443 26.6636 21.0324C26.6636 20.7205 26.4103 20.4673 26.0984 20.4673H24.9271V15.4043H26.0984C26.4103 15.4043 26.6636 15.1511 26.6636 14.8392C26.6636 14.5273 26.4103 14.274 26.0984 14.274H24.9169C24.8524 13.4238 24.4859 12.621 23.8788 12.0138C23.3317 11.4668 22.6257 11.1151 21.8695 11.0037V9.79417C21.8695 9.48225 21.6162 9.229 21.3043 9.229C20.9924 9.229 20.7391 9.48225 20.7391 9.79417V10.9655ZM21.3478 23.7758H14.5658C13.9163 23.7758 13.2934 23.5178 12.8341 23.0585C12.3748 22.5992 12.1168 21.9763 12.1168 21.3268C12.1168 19.2821 12.1168 16.5895 12.1168 14.5448C12.1168 13.8953 12.3748 13.2724 12.8341 12.8131C13.2934 12.3538 13.9163 12.0958 14.5658 12.0958H21.3478C21.9973 12.0958 22.6202 12.3538 23.0795 12.8131C23.5388 13.2724 23.7968 13.8953 23.7968 14.5448V21.3268C23.7968 21.9763 23.5388 22.5992 23.0795 23.0585C22.6202 23.5178 21.9973 23.7758 21.3478 23.7758ZM14.7542 17.9358C14.7542 17.9358 14.7542 18.4752 14.7542 19.0661C14.7542 20.2106 15.682 21.1384 16.8265 21.1384C17.5352 21.1384 18.3783 21.1384 19.0871 21.1384C20.2316 21.1384 21.1594 20.2106 21.1594 19.0661C21.1594 18.3573 21.1594 17.5143 21.1594 16.8055C21.1594 15.661 20.2316 14.7332 19.0871 14.7332C18.4962 14.7332 17.9568 14.7332 17.9568 14.7332C17.6449 14.7332 17.3916 14.9864 17.3916 15.2984C17.3916 15.6103 17.6449 15.8635 17.9568 15.8635H19.0871C19.6073 15.8635 20.029 16.2853 20.0291 16.8054C20.0291 16.8055 20.0291 19.0661 20.0291 19.0661C20.029 19.5863 19.6073 20.008 19.0871 20.0081C19.0871 20.0081 16.8265 20.0081 16.8265 20.0081C16.3062 20.008 15.8845 19.5863 15.8845 19.0662C15.8845 19.0661 15.8845 17.9358 15.8845 17.9358C15.8845 17.6239 15.6313 17.3706 15.3194 17.3706C15.0074 17.3706 14.7542 17.6239 14.7542 17.9358ZM21.7245 13.5699C22.0547 13.5699 22.3227 13.8379 22.3227 14.1681C22.3227 14.4982 22.0547 14.7662 21.7245 14.7662C21.3944 14.7662 21.1264 14.4982 21.1264 14.1681C21.1264 13.8379 21.3944 13.5699 21.7245 13.5699Z" fill="black"/>
<path fill-rule="evenodd" clip-rule="evenodd" d="M24.9271 14.5447C24.9271 13.5954 24.55 12.685 23.8787 12.0137C23.2074 11.3424 22.297 10.9653 21.3477 10.9653C19.303 10.9653 16.6105 10.9653 14.5658 10.9653C13.6164 10.9653 12.706 11.3424 12.0348 12.0137C11.3635 12.685 10.9864 13.5954 10.9864 14.5447C10.9864 16.5894 10.9864 19.2819 10.9864 21.3267C10.9864 22.2759 11.3635 23.1864 12.0348 23.8576C12.706 24.5289 13.6164 24.906 14.5658 24.906C15.8327 24.906 17.2365 24.906 18.2153 24.906C19.1646 24.906 20.075 24.5289 20.7463 23.8576C21.6331 22.9708 22.9919 21.612 23.8787 20.7252C24.55 20.054 24.9271 19.1436 24.9271 18.1942V14.5447ZM23.7967 14.5447V18.1942C23.7967 18.8438 23.5387 19.4667 23.0794 19.926C22.1926 20.8128 20.8338 22.1716 19.947 23.0584C19.4878 23.5177 18.8648 23.7757 18.2153 23.7757C17.2365 23.7757 15.8327 23.7757 14.5658 23.7757C13.9162 23.7757 13.2933 23.5177 12.834 23.0584C12.3747 22.5991 12.1167 21.9762 12.1167 21.3267C12.1167 19.2819 12.1167 16.5894 12.1167 14.5447C12.1167 13.8952 12.3747 13.2722 12.834 12.813C13.2933 12.3537 13.9162 12.0957 14.5658 12.0957H21.3477C21.9972 12.0957 22.6201 12.3537 23.0794 12.813C23.5387 13.2722 23.7967 13.8952 23.7967 14.5447ZM14.7541 19.066C14.7542 20.2105 15.6819 21.1383 16.8264 21.1383C17.5352 21.1383 18.3783 21.1383 19.0871 21.1383C20.2315 21.1383 21.1593 20.2105 21.1593 19.066C21.1593 18.3572 21.1593 17.5141 21.1593 16.8054C21.1593 15.6609 20.2315 14.7331 19.0871 14.7331H16.8264C15.6819 14.7331 14.7542 15.6609 14.7541 16.8054V19.066ZM15.8845 19.066V16.8054C15.8845 16.2851 16.3062 15.8634 16.8264 15.8634C16.8264 15.8634 19.087 15.8634 19.087 15.8634C19.6073 15.8634 20.029 16.2851 20.029 16.8053C20.029 16.8054 20.029 19.066 20.029 19.066C20.029 19.5862 19.6073 20.0079 19.0871 20.0079C19.087 20.0079 16.8264 20.0079 16.8264 20.0079C16.3062 20.0079 15.8845 19.5862 15.8845 19.066Z" fill="black" fill-opacity="0.5"/>
</svg>
