<svg width="82" height="20" viewBox="0 0 82 20" fill="none" xmlns="http://www.w3.org/2000/svg">
<g clip-path="url(#clip0_1_575)">
<path d="M78.4709 7.19817C78.0485 7.19817 77.651 7.11556 77.2832 6.95189C76.9137 6.78823 76.5911 6.5591 76.3136 6.26607C76.0362 5.97304 75.8195 5.63169 75.6621 5.24357C75.5047 4.8539 75.4268 4.43462 75.4268 3.9826C75.4268 3.53058 75.5047 3.11129 75.6621 2.72318C75.8195 2.33507 76.0362 1.99683 76.3136 1.7038C76.5911 1.41233 76.9137 1.18476 77.2832 1.0211C77.651 0.857434 78.0485 0.776382 78.4709 0.776382C78.8933 0.776382 79.2861 0.857434 79.6555 1.0211C80.0249 1.18476 80.3475 1.41077 80.6265 1.7038C80.9055 1.99527 81.1238 2.33507 81.2812 2.72318C81.4386 3.11129 81.5165 3.53058 81.5165 3.9826C81.5165 4.43462 81.4386 4.85546 81.2812 5.24357C81.1238 5.63169 80.9055 5.97304 80.625 6.26607C80.3444 6.5591 80.0202 6.78823 79.6539 6.95189C79.2845 7.11556 78.8917 7.19817 78.4709 7.19817ZM78.4709 6.65263C78.82 6.65263 79.1458 6.58404 79.4497 6.44844C79.7537 6.31283 80.0186 6.12267 80.2493 5.87952C80.48 5.63636 80.6593 5.35268 80.7902 5.03003C80.9211 4.70739 80.985 4.35668 80.985 3.97948C80.985 3.60228 80.9196 3.25157 80.7902 2.93049C80.6608 2.6094 80.48 2.32727 80.2493 2.08568C80.0186 1.84408 79.7521 1.65548 79.4497 1.52143C79.1458 1.38895 78.82 1.32192 78.4709 1.32192C78.1217 1.32192 77.7913 1.38895 77.4858 1.52299C77.1818 1.65704 76.9137 1.84564 76.6831 2.08724C76.4524 2.32883 76.2731 2.61095 76.1453 2.93516C76.0175 3.25937 75.952 3.60695 75.952 3.9826C75.952 4.35824 76.0175 4.7105 76.1469 5.03315C76.2762 5.3558 76.457 5.63948 76.6877 5.88264C76.9184 6.12579 77.185 6.31595 77.4905 6.45156C77.796 6.5856 78.1217 6.65263 78.4709 6.65263ZM77.2005 5.75171V2.10594H78.4101C78.8387 2.10594 79.1785 2.2057 79.4295 2.40365C79.6789 2.60316 79.8051 2.88217 79.8051 3.24222C79.8051 3.40277 79.7677 3.54149 79.6929 3.65839C79.6181 3.77529 79.5058 3.87817 79.3546 3.96701C79.5058 4.06209 79.6165 4.18679 79.6866 4.34421C79.7568 4.50164 79.7911 4.68556 79.7911 4.89755V5.13758C79.7911 5.25449 79.7958 5.36048 79.8067 5.45244C79.816 5.54596 79.8363 5.62234 79.8643 5.68157V5.75015H79.1957C79.1692 5.69092 79.1536 5.60207 79.1489 5.48673C79.1427 5.37139 79.1411 5.25293 79.1411 5.13291V4.90066C79.1411 4.69803 79.0928 4.5484 78.9977 4.45176C78.9026 4.35668 78.7468 4.30836 78.5317 4.30836H77.8536V5.75015L77.2005 5.75171ZM77.8536 3.72386H78.3976C78.6096 3.72697 78.7888 3.68645 78.9354 3.60228C79.0834 3.51811 79.1567 3.39653 79.1567 3.24066C79.1567 3.03492 79.1006 2.89152 78.9899 2.80891C78.8777 2.72786 78.686 2.68733 78.4116 2.68733H77.8536V3.72386Z" fill="black"/>
</g>
<path d="M19.1631 1.16665V18.6537H15.3009V17.1499C13.6667 18.304 11.7356 18.9336 9.58173 18.9336C4.30819 18.9336 0 14.8768 0 9.91016C0 4.94353 4.30819 0.886734 9.58173 0.886734C11.7356 0.886734 13.7041 1.58635 15.3009 2.70565V1.16665H19.1631ZM9.58134 15.0863C12.664 15.0863 15.0781 12.8128 15.0781 9.90979C15.0781 7.00679 12.664 4.73369 9.58134 4.73369C6.49871 4.73369 4.08497 7.00715 4.08497 9.90979C4.08497 12.8124 6.4991 15.0863 9.58134 15.0863Z" fill="#2B1845"/>
<path d="M36.1052 1.15324C33.977 7.00381 31.812 12.8191 29.6473 18.6693H26.418C24.2899 12.8187 22.1614 7.00344 19.9971 1.15324H24.3634C25.4272 4.376 26.4184 7.63403 27.5188 10.8222L27.9595 12.1183C27.9595 12.1885 27.9961 12.2583 28.0326 12.3285C28.1793 12.1885 28.3998 11.2775 28.583 10.8921L31.7388 1.18815C33.2065 1.18815 34.6375 1.15324 36.1052 1.15324Z" fill="#2B1845"/>
<path d="M73.5975 1.16667V18.6537H69.7354V17.1499C68.1016 18.3041 66.1701 18.9336 64.0162 18.9336C58.7427 18.9336 54.4345 14.8768 54.4345 9.91017C54.4345 4.94355 58.7427 0.886749 64.0162 0.886749C66.1701 0.886749 68.1386 1.58636 69.7354 2.70567V1.16667H73.5975ZM64.0162 15.0863C67.0984 15.0863 69.5126 12.8128 69.5126 9.90981C69.5126 7.0068 67.0988 4.7337 64.0162 4.7337C60.9336 4.7337 58.5195 7.00717 58.5195 9.90981C58.5195 12.8125 60.9332 15.0863 64.0162 15.0863Z" fill="#2B1845"/>
<path d="M53.2872 10.7464V1.15183H49.1717V11.403C49.1717 13.965 47.2435 15.0554 45.0924 15.0554C42.9413 15.0554 41.0169 13.301 41.0169 11.192V1.1522H36.9376V11.4413C36.9376 11.5923 36.9415 11.7393 36.9496 11.8866C37.085 14.1049 38.2006 16.0784 39.9017 17.4141C39.9095 17.4178 39.9138 17.4215 39.9216 17.4292C41.3358 18.5347 43.1525 19.1987 45.1324 19.1987C46.694 19.1987 48.1561 18.7837 49.3953 18.063C51.5546 16.8179 53.0567 14.6485 53.2876 12.1355C53.3113 11.909 53.3234 11.6752 53.3234 11.4413C53.3234 11.2075 53.3113 10.9736 53.2876 10.7472L53.2872 10.7464Z" fill="#2B1845"/>
<defs>
<clipPath id="clip0_1_575">
<rect width="7.98047" height="7.98047" fill="white" transform="translate(73.5977 1.52588e-05)"/>
</clipPath>
</defs>
</svg>
