<svg width="22" height="21" viewBox="0 0 22 21" fill="none" xmlns="http://www.w3.org/2000/svg">
<path d="M13.6818 8.13296C13.67 8.17922 13.6431 8.22022 13.6054 8.2495C13.5676 8.27878 13.5213 8.29467 13.4735 8.29467C13.4258 8.29467 13.3794 8.27878 13.3417 8.2495C13.3039 8.22022 13.277 8.17922 13.2652 8.13296C12.7478 6.30826 11.3097 4.87444 9.489 4.35476C9.44287 4.34312 9.40194 4.31641 9.37271 4.27888C9.34347 4.24135 9.32759 4.19513 9.32759 4.14756C9.32759 4.09998 9.34347 4.05377 9.37271 4.01623C9.40194 3.9787 9.44287 3.952 9.489 3.94036C10.3877 3.68339 11.2061 3.20157 11.8668 2.54041C12.5275 1.87925 13.0088 1.06057 13.2652 0.161702C13.277 0.115446 13.3039 0.0744471 13.3417 0.0451694C13.3794 0.0158916 13.4258 0 13.4735 0C13.5213 0 13.5676 0.0158916 13.6054 0.0451694C13.6431 0.0744471 13.67 0.115446 13.6818 0.161702C14.1993 1.98641 15.6378 3.42045 17.458 3.93991C17.5043 3.95147 17.5453 3.97815 17.5746 4.01572C17.6039 4.05328 17.6199 4.09957 17.6199 4.14722C17.6199 4.19488 17.6039 4.24116 17.5746 4.27873C17.5453 4.31629 17.5043 4.34297 17.458 4.35453C15.6378 4.87421 14.1993 6.31028 13.6821 8.13274L13.6818 8.13296ZM21.1572 12.2501C20.483 12.4431 19.8691 12.8046 19.3734 13.3006C18.8777 13.7966 18.5166 14.4107 18.324 15.085C18.2781 15.2468 18.0577 15.2468 18.0142 15.085C17.8217 14.4107 17.4606 13.7965 16.9649 13.3005C16.4692 12.8044 15.8553 12.4429 15.1811 12.2499C15.146 12.2418 15.1147 12.2221 15.0922 12.1939C15.0698 12.1658 15.0576 12.1308 15.0576 12.0949C15.0576 12.0589 15.0698 12.0239 15.0922 11.9958C15.1147 11.9676 15.146 11.9479 15.1811 11.9398C16.5475 11.5537 17.6256 10.4753 18.0142 9.10692C18.0224 9.07194 18.0421 9.04075 18.0702 9.01843C18.0983 8.9961 18.1332 8.98395 18.1691 8.98395C18.205 8.98395 18.2399 8.9961 18.268 9.01843C18.2961 9.04075 18.3159 9.07194 18.324 9.10692C18.7126 10.4753 19.7908 11.5537 21.1572 11.9398C21.3207 11.9858 21.3207 12.2021 21.1572 12.2501ZM12.1956 14.8274C9.46503 15.6043 7.30858 17.7565 6.53377 20.4913C6.51622 20.5611 6.47588 20.623 6.41912 20.6673C6.36237 20.7115 6.29247 20.7355 6.2205 20.7355C6.14854 20.7355 6.07863 20.7115 6.02188 20.6673C5.96513 20.623 5.92478 20.5611 5.90724 20.4913C5.13242 17.7585 2.98023 15.6043 0.245415 14.8274C0.175441 14.8104 0.113206 14.7704 0.0687003 14.7138C0.0241947 14.6572 0 14.5873 0 14.5153C0 14.4433 0.0241947 14.3734 0.0687003 14.3168C0.113206 14.2601 0.175441 14.2201 0.245415 14.2031C2.97597 13.4281 5.13242 11.2761 5.90724 8.54109C5.92444 8.471 5.96465 8.4087 6.02145 8.36416C6.07824 8.31962 6.14833 8.29541 6.2205 8.29541C6.29268 8.29541 6.36277 8.31962 6.41956 8.36416C6.47635 8.4087 6.51656 8.471 6.53377 8.54109C7.30881 11.2717 9.46077 13.4283 12.1956 14.2031C12.2656 14.2201 12.3278 14.2601 12.3723 14.3168C12.4168 14.3734 12.441 14.4433 12.441 14.5153C12.441 14.5873 12.4168 14.6572 12.3723 14.7138C12.3278 14.7704 12.2656 14.8104 12.1956 14.8274Z" fill="#864EFF"/>
</svg>
