<svg width="16" height="15" viewBox="0 0 16 15" fill="none" xmlns="http://www.w3.org/2000/svg">
<path d="M0 13.75H1.5M1.5 13.75H9M1.5 13.75V3.19721C1.5 2.34066 1.5 1.91206 1.66349 1.5849C1.8073 1.29713 2.0366 1.06333 2.31885 0.916696C2.63972 0.75 3.06007 0.75 3.90015 0.75H6.60015C7.44023 0.75 7.85968 0.75 8.18055 0.916696C8.46279 1.06333 8.69286 1.29713 8.83667 1.5849C9 1.91174 9 2.33982 9 3.1947V7.63235M9 13.75H13.5M9 13.75V7.63235M13.5 13.75H15M13.5 13.75V7.63235C13.5 6.91974 13.4999 6.5636 13.3857 6.28254C13.2335 5.90779 12.9418 5.60988 12.5742 5.45465C12.2986 5.33824 11.9487 5.33824 11.2498 5.33824C10.5509 5.33824 10.2014 5.33824 9.92578 5.45465C9.55824 5.60988 9.26642 5.90779 9.11418 6.28254C9 6.5636 9 6.91974 9 7.63235M3.75 6.10294H6.75M3.75 3.80882H6.75" stroke="#68656C" stroke-width="1.5" stroke-linecap="round" stroke-linejoin="round"/>
</svg>
